<svg id="Group_10565" data-name="Group 10565" xmlns="http://www.w3.org/2000/svg" width="24" height="24" viewBox="0 0 24 24">
  <g id="Group_10569" data-name="Group 10569">
    <path id="Path_6359" data-name="Path 6359" d="M19.2,0H4.8A4.8,4.8,0,0,0,0,4.8V19.2A4.8,4.8,0,0,0,4.8,24H19.2A4.8,4.8,0,0,0,24,19.2V4.8A4.8,4.8,0,0,0,19.2,0M16.36,6.7H15.042c-1.217,0-1.521.608-1.521,1.419V10.1h2.687l-.456,2.839H13.521v7.148H10.175V12.938H7.64V10.1h2.535V7.869A3.674,3.674,0,0,1,14.13,3.914a16.542,16.542,0,0,1,2.23.2Z" fill="#7d7e81"/>
  </g>
</svg>
