<svg id="Group_10560" data-name="Group 10560" xmlns="http://www.w3.org/2000/svg" width="24" height="24" viewBox="0 0 24 24">
  <g id="Group_10570" data-name="Group 10570">
    <path id="Path_6355" data-name="Path 6355" d="M15.906,13.785v-.029l-.02.029Z" transform="translate(-3.177 -2.751)" fill="#7d7e81"/>
    <path id="Path_6356" data-name="Path 6356" d="M19.2,0H4.8A4.8,4.8,0,0,0,0,4.8V19.2A4.8,4.8,0,0,0,4.8,24H19.2A4.8,4.8,0,0,0,24,19.2V4.8A4.8,4.8,0,0,0,19.2,0M8.08,18.734H5.086V9.728H8.08ZM6.583,8.5H6.564A1.56,1.56,0,1,1,6.6,5.387,1.561,1.561,0,1,1,6.583,8.5m12.29,10.234H15.88V13.916c0-1.21-.434-2.037-1.517-2.037a1.638,1.638,0,0,0-1.535,1.1,2.045,2.045,0,0,0-.1.73v5.029H9.736s.039-8.16,0-9.006H12.73V11a2.969,2.969,0,0,1,2.7-1.488c1.969,0,3.446,1.287,3.446,4.054Z" fill="#7d7e81"/>
  </g>
</svg>
