<svg xmlns="http://www.w3.org/2000/svg" width="24" height="24" viewBox="0 0 24 24">
  <path id="Path_6348" data-name="Path 6348" d="M19.2,0H4.8A4.8,4.8,0,0,0,0,4.8V19.2A4.8,4.8,0,0,0,4.8,24H19.2A4.8,4.8,0,0,0,24,19.2V4.8A4.8,4.8,0,0,0,19.2,0M17.556,8.153c-.181,1.9-.96,6.5-1.358,8.623-.17.9-.5,1.2-.821,1.229-.7.06-1.229-.46-1.9-.9-1.061-.689-1.649-1.118-2.68-1.8-1.188-.78-.419-1.21.26-1.909.181-.18,3.248-2.977,3.308-3.227a.248.248,0,0,0-.06-.21.28.28,0,0,0-.251-.02c-.11.02-1.789,1.14-5.054,3.348a2.244,2.244,0,0,1-1.3.479,8.569,8.569,0,0,1-1.868-.439c-.749-.24-1.349-.37-1.3-.79.03-.22.329-.439.889-.67q5.245-2.277,6.992-3.017c3.329-1.39,4.027-1.628,4.477-1.639a.8.8,0,0,1,.469.14.529.529,0,0,1,.17.33,1.737,1.737,0,0,1,.02.469" fill="#7d7e81"/>
</svg>
