<svg id="Group_10562" data-name="Group 10562" xmlns="http://www.w3.org/2000/svg" width="24" height="24" viewBox="0 0 24 24">
  <g id="Group_10563" data-name="Group 10563">
    <path id="Path_6357" data-name="Path 6357" d="M19.2,0H4.8A4.8,4.8,0,0,0,0,4.8V19.2A4.8,4.8,0,0,0,4.8,24H19.2A4.8,4.8,0,0,0,24,19.2V4.8A4.8,4.8,0,0,0,19.2,0M14.614,18.172l-3.3-4.315L7.537,18.172h-2.1l4.893-5.593L5.172,5.827H9.493l2.983,3.945,3.451-3.945h2.094l-4.574,5.23,5.382,7.115Z" fill="#7d7e81"/>
    <path id="Path_6358" data-name="Path 6358" d="M9.521,8.77l7.575,9.9h1.16l-7.49-9.9Z" transform="translate(-1.904 -1.754)" fill="#7d7e81"/>
  </g>
</svg>
