<svg width="128" height="26" viewBox="0 0 128 26" fill="none" xmlns="http://www.w3.org/2000/svg">
<g clip-path="url(#clip0_233_5938)">
<path d="M0 20.5V5.5C0 5.17 0.03 4.85 0.1 4.52C0.16 4.2 0.25 3.89 0.38 3.59C0.51 3.29 0.66 3 0.84 2.73C1.03 2.45 1.23 2.2 1.46 1.96C1.7 1.73 1.95 1.53 2.22 1.34C2.49 1.15 2.78 1 3.08 0.88C3.38 0.76 3.7 0.66 4.02 0.6C4.34 0.54 4.67 0.5 5 0.5H20C20.33 0.5 20.65 0.53 20.98 0.6C21.3 0.66 21.61 0.76 21.92 0.88C22.23 1 22.51 1.16 22.78 1.34C23.05 1.52 23.31 1.73 23.54 1.96C23.77 2.19 23.98 2.44 24.16 2.72C24.34 2.99 24.5 3.28 24.62 3.58C24.75 3.88 24.84 4.2 24.9 4.52C24.97 4.85 25 5.17 25 5.5V20.5C25 20.83 24.97 21.15 24.9 21.48C24.84 21.8 24.74 22.11 24.62 22.42C24.5 22.73 24.34 23.01 24.16 23.28C23.98 23.55 23.77 23.81 23.54 24.04C23.31 24.27 23.06 24.48 22.78 24.66C22.51 24.84 22.22 25 21.92 25.12C21.62 25.25 21.3 25.34 20.98 25.4C20.65 25.47 20.33 25.5 20 25.5H5C4.67 25.5 4.35 25.47 4.02 25.4C3.69 25.33 3.39 25.24 3.08 25.12C2.77 25 2.49 24.84 2.22 24.66C1.95 24.48 1.69 24.27 1.46 24.04C1.23 23.81 1.02 23.56 0.84 23.28C0.66 23.01 0.5 22.72 0.38 22.42C0.26 22.12 0.16 21.8 0.1 21.48C0.03 21.15 0 20.83 0 20.5Z" fill="#4F84E2"/>
<path d="M16.7698 10.9495C16.1398 11.6395 15.0598 11.6395 14.4298 10.9495C13.8898 10.3595 13.8898 9.43949 14.4298 8.84949C15.0598 8.15949 16.1398 8.15949 16.7698 8.84949C17.3098 9.43949 17.3098 10.3595 16.7698 10.9495ZM18.0598 7.38949C16.1598 5.52949 13.1198 5.53949 11.2298 7.41949C9.69977 8.93949 9.40977 11.2195 10.3398 13.0395C10.3698 13.1095 10.3598 13.1995 10.3098 13.2495L5.55977 17.9895C5.52977 18.0195 5.50977 18.0695 5.50977 18.1195V19.8195C5.50977 19.9195 5.58977 19.9995 5.68977 19.9995H7.39977C7.44977 19.9995 7.48977 19.9795 7.52977 19.9495L8.96977 18.5195C8.99977 18.4895 9.04977 18.4695 9.09977 18.4695H10.9998C11.1998 18.4695 11.3698 18.3095 11.3698 18.0995V16.1995C11.3698 16.1495 11.3898 16.1095 11.4198 16.0695L12.2898 15.1995C12.3498 15.1395 12.4298 15.1295 12.4998 15.1695C14.3198 16.0795 16.5898 15.7795 18.0998 14.2695C19.9798 12.3695 19.9698 9.25949 18.0598 7.38949Z" fill="white"/>
</g>
<path d="M35.806 20.5V5.59H41.56C44.353 5.59 46.306 7.543 46.306 10.441C46.306 13.339 44.353 15.355 41.56 15.355H38.515V20.5H35.806ZM38.515 13.003H41.056C42.631 13.003 43.555 11.995 43.555 10.441C43.555 8.908 42.631 7.921 41.098 7.921H38.515V13.003ZM47.2623 17.539C47.2623 14.326 51.1263 13.78 53.4993 13.78H53.9613V13.633C53.9613 12.226 53.0583 11.743 51.9453 11.743C50.8953 11.743 49.8243 12.184 48.9633 12.772L47.9763 10.861C48.8583 10.147 50.5803 9.538 52.1763 9.538C54.9693 9.538 56.6283 11.092 56.6283 13.801V20.5H54.1503V19.597C54.1503 19.156 54.2133 18.82 54.2133 18.82H54.1713C53.5203 19.954 52.2393 20.752 50.7903 20.752C48.8583 20.752 47.2623 19.492 47.2623 17.539ZM49.9083 17.308C49.9083 18.022 50.4543 18.715 51.5253 18.715C53.0163 18.715 53.9823 17.203 53.9823 15.901V15.607H53.5203C52.1763 15.607 49.9083 15.796 49.9083 17.308ZM58.4996 19.177L59.6966 17.413C60.4946 18.148 61.6706 18.589 62.7416 18.589C63.6866 18.589 64.2326 18.19 64.2326 17.518C64.2326 15.838 58.9196 16.258 58.9196 12.751C58.9196 10.651 60.7676 9.538 63.0146 9.538C64.2956 9.538 65.6396 9.895 66.6266 10.756L65.6396 12.625C65.0096 12.079 63.8756 11.701 62.9306 11.701C62.0066 11.701 61.4396 12.058 61.4396 12.73C61.4396 14.431 66.7526 13.948 66.7526 17.455C66.7526 19.345 65.1566 20.752 62.6996 20.752C61.2086 20.752 59.6126 20.248 58.4996 19.177ZM68.0973 19.177L69.2943 17.413C70.0923 18.148 71.2683 18.589 72.3393 18.589C73.2843 18.589 73.8303 18.19 73.8303 17.518C73.8303 15.838 68.5173 16.258 68.5173 12.751C68.5173 10.651 70.3653 9.538 72.6123 9.538C73.8933 9.538 75.2373 9.895 76.2243 10.756L75.2373 12.625C74.6073 12.079 73.4733 11.701 72.5283 11.701C71.6043 11.701 71.0373 12.058 71.0373 12.73C71.0373 14.431 76.3503 13.948 76.3503 17.455C76.3503 19.345 74.7543 20.752 72.2973 20.752C70.8063 20.752 69.2103 20.248 68.0973 19.177ZM80.6999 20.5L77.4449 9.79H80.2589L82.1279 16.825C82.2749 17.392 82.3379 17.959 82.3379 17.959H82.3799C82.3799 17.959 82.4849 17.392 82.6319 16.825L84.6059 9.811H86.9789L88.9529 16.825C89.0999 17.392 89.1839 17.959 89.1839 17.959H89.2259C89.2259 17.959 89.2889 17.392 89.4569 16.825L91.3259 9.79H94.0979L90.8429 20.5H87.8819L86.0759 14.389C85.9079 13.822 85.8029 13.234 85.8029 13.234H85.7609C85.7609 13.234 85.6559 13.822 85.5089 14.389L83.6819 20.5H80.6999ZM95.0495 15.145C95.0495 11.869 97.6745 9.538 100.908 9.538C104.184 9.538 106.809 11.869 106.809 15.145C106.809 18.442 104.184 20.752 100.929 20.752C97.6745 20.752 95.0495 18.442 95.0495 15.145ZM97.7585 15.145C97.7585 17.14 99.1865 18.484 100.929 18.484C102.672 18.484 104.121 17.14 104.121 15.145C104.121 13.171 102.672 11.806 100.929 11.806C99.1865 11.806 97.7585 13.171 97.7585 15.145ZM109.01 20.5V9.79H111.572V11.68C111.572 12.079 111.53 12.415 111.53 12.415H111.572C112.055 10.903 113.357 9.643 114.974 9.643C115.142 9.643 115.31 9.664 115.478 9.685V12.31C115.373 12.289 115.058 12.268 114.827 12.268C112.643 12.268 111.677 14.158 111.677 16.174V20.5H109.01ZM117.336 20.5V5.59H120.003V13.57H121.326L123.909 9.79H126.87L123.489 14.578V14.62L127.29 20.5H124.224L121.389 15.817H120.003V20.5H117.336Z" fill="#C2C2C2"/>
<defs>
<clipPath id="clip0_233_5938">
<rect width="25" height="25" fill="white" transform="translate(0 0.5)"/>
</clipPath>
</defs>
</svg>
