<svg width="128" height="26" viewBox="0 0 128 26" fill="none" xmlns="http://www.w3.org/2000/svg">
<g clip-path="url(#clip0_100_6214)">
<path d="M0 20.5V5.5C0 5.17 0.03 4.85 0.1 4.52C0.16 4.2 0.25 3.89 0.38 3.59C0.51 3.29 0.66 3 0.84 2.73C1.03 2.45 1.23 2.2 1.46 1.96C1.7 1.73 1.95 1.53 2.22 1.34C2.49 1.15 2.78 1 3.08 0.88C3.38 0.76 3.7 0.66 4.02 0.6C4.34 0.54 4.67 0.5 5 0.5H20C20.33 0.5 20.65 0.53 20.98 0.6C21.3 0.66 21.61 0.76 21.92 0.88C22.23 1 22.51 1.16 22.78 1.34C23.05 1.52 23.31 1.73 23.54 1.96C23.77 2.19 23.98 2.44 24.16 2.72C24.34 2.99 24.5 3.28 24.62 3.58C24.75 3.88 24.84 4.2 24.9 4.52C24.97 4.85 25 5.17 25 5.5V20.5C25 20.83 24.97 21.15 24.9 21.48C24.84 21.8 24.74 22.11 24.62 22.42C24.5 22.73 24.34 23.01 24.16 23.28C23.98 23.55 23.77 23.81 23.54 24.04C23.31 24.27 23.06 24.48 22.78 24.66C22.51 24.84 22.22 25 21.92 25.12C21.62 25.25 21.3 25.34 20.98 25.4C20.65 25.47 20.33 25.5 20 25.5H5C4.67 25.5 4.35 25.47 4.02 25.4C3.69 25.33 3.39 25.24 3.08 25.12C2.77 25 2.49 24.84 2.22 24.66C1.95 24.48 1.69 24.27 1.46 24.04C1.23 23.81 1.02 23.56 0.84 23.28C0.66 23.01 0.5 22.72 0.38 22.42C0.26 22.12 0.16 21.8 0.1 21.48C0.03 21.15 0 20.83 0 20.5Z" fill="#4F84E2"/>
<path d="M16.7698 10.9495C16.1398 11.6395 15.0598 11.6395 14.4298 10.9495C13.8898 10.3595 13.8898 9.43949 14.4298 8.84949C15.0598 8.15949 16.1398 8.15949 16.7698 8.84949C17.3098 9.43949 17.3098 10.3595 16.7698 10.9495ZM18.0598 7.38949C16.1598 5.52949 13.1198 5.53949 11.2298 7.41949C9.69977 8.93949 9.40977 11.2195 10.3398 13.0395C10.3698 13.1095 10.3598 13.1995 10.3098 13.2495L5.55977 17.9895C5.52977 18.0195 5.50977 18.0695 5.50977 18.1195V19.8195C5.50977 19.9195 5.58977 19.9995 5.68977 19.9995H7.39977C7.44977 19.9995 7.48977 19.9795 7.52977 19.9495L8.96977 18.5195C8.99977 18.4895 9.04977 18.4695 9.09977 18.4695H10.9998C11.1998 18.4695 11.3698 18.3095 11.3698 18.0995V16.1995C11.3698 16.1495 11.3898 16.1095 11.4198 16.0695L12.2898 15.1995C12.3498 15.1395 12.4298 15.1295 12.4998 15.1695C14.3198 16.0795 16.5898 15.7795 18.0998 14.2695C19.9798 12.3695 19.9698 9.25949 18.0598 7.38949Z" fill="white"/>
</g>
<path d="M35.806 20.5V5.59H41.56C42.96 5.59 44.101 6.038 44.983 6.934C45.865 7.83 46.306 8.999 46.306 10.441C46.306 11.883 45.865 13.066 44.983 13.99C44.101 14.9 42.96 15.355 41.56 15.355H38.515V20.5H35.806ZM38.515 13.003H41.056C41.84 13.003 42.449 12.772 42.883 12.31C43.331 11.848 43.555 11.225 43.555 10.441C43.555 9.671 43.331 9.062 42.883 8.614C42.449 8.152 41.854 7.921 41.098 7.921H38.515V13.003ZM47.2623 17.539C47.2623 16.783 47.4653 16.139 47.8713 15.607C48.2913 15.075 48.8373 14.69 49.5093 14.452C50.1953 14.2 50.8533 14.025 51.4833 13.927C52.1273 13.829 52.7993 13.78 53.4993 13.78H53.9613V13.633C53.9613 12.373 53.2893 11.743 51.9453 11.743C50.9653 11.743 49.9713 12.086 48.9633 12.772L47.9763 10.861C48.4383 10.497 49.0613 10.189 49.8453 9.937C50.6293 9.671 51.4063 9.538 52.1763 9.538C53.5763 9.538 54.6683 9.916 55.4523 10.672C56.2363 11.414 56.6283 12.457 56.6283 13.801V20.5H54.1503V19.597L54.2133 18.82H54.1713C53.8353 19.394 53.3663 19.863 52.7643 20.227C52.1623 20.577 51.5043 20.752 50.7903 20.752C49.7963 20.752 48.9563 20.458 48.2703 19.87C47.5983 19.268 47.2623 18.491 47.2623 17.539ZM49.9083 17.308C49.9083 17.686 50.0483 18.015 50.3283 18.295C50.6223 18.575 51.0213 18.715 51.5253 18.715C52.2393 18.715 52.8273 18.421 53.2893 17.833C53.7513 17.245 53.9823 16.601 53.9823 15.901V15.607H53.5203C51.1123 15.607 49.9083 16.174 49.9083 17.308ZM58.4996 19.177L59.6966 17.413C60.5506 18.197 61.5656 18.589 62.7416 18.589C63.2176 18.589 63.5816 18.498 63.8336 18.316C64.0996 18.12 64.2326 17.854 64.2326 17.518C64.2326 17.21 64.0506 16.944 63.6866 16.72C63.3226 16.496 62.8816 16.293 62.3636 16.111C61.8456 15.929 61.3206 15.719 60.7886 15.481C60.2706 15.229 59.8296 14.872 59.4656 14.41C59.1016 13.948 58.9196 13.395 58.9196 12.751C58.9196 11.743 59.3046 10.959 60.0746 10.399C60.8586 9.825 61.8386 9.538 63.0146 9.538C64.4986 9.538 65.7026 9.944 66.6266 10.756L65.6396 12.625C65.3316 12.359 64.9186 12.142 64.4006 11.974C63.8966 11.792 63.4066 11.701 62.9306 11.701C61.9366 11.701 61.4396 12.044 61.4396 12.73C61.4396 13.038 61.6216 13.304 61.9856 13.528C62.3496 13.752 62.7906 13.955 63.3086 14.137C63.8406 14.319 64.3656 14.529 64.8836 14.767C65.4016 14.991 65.8426 15.334 66.2066 15.796C66.5706 16.258 66.7526 16.811 66.7526 17.455C66.7526 18.407 66.3816 19.198 65.6396 19.828C64.8976 20.444 63.9176 20.752 62.6996 20.752C60.9916 20.752 59.5916 20.227 58.4996 19.177ZM68.0973 19.177L69.2943 17.413C70.1483 18.197 71.1633 18.589 72.3393 18.589C72.8153 18.589 73.1793 18.498 73.4313 18.316C73.6973 18.12 73.8303 17.854 73.8303 17.518C73.8303 17.21 73.6483 16.944 73.2843 16.72C72.9203 16.496 72.4793 16.293 71.9613 16.111C71.4433 15.929 70.9183 15.719 70.3863 15.481C69.8683 15.229 69.4273 14.872 69.0633 14.41C68.6993 13.948 68.5173 13.395 68.5173 12.751C68.5173 11.743 68.9023 10.959 69.6723 10.399C70.4563 9.825 71.4363 9.538 72.6123 9.538C74.0963 9.538 75.3003 9.944 76.2243 10.756L75.2373 12.625C74.9293 12.359 74.5163 12.142 73.9983 11.974C73.4943 11.792 73.0043 11.701 72.5283 11.701C71.5343 11.701 71.0373 12.044 71.0373 12.73C71.0373 13.038 71.2193 13.304 71.5833 13.528C71.9473 13.752 72.3883 13.955 72.9063 14.137C73.4383 14.319 73.9633 14.529 74.4813 14.767C74.9993 14.991 75.4403 15.334 75.8043 15.796C76.1683 16.258 76.3503 16.811 76.3503 17.455C76.3503 18.407 75.9793 19.198 75.2373 19.828C74.4953 20.444 73.5153 20.752 72.2973 20.752C70.5893 20.752 69.1893 20.227 68.0973 19.177ZM80.6999 20.5L77.4449 9.79H80.2589L82.1279 16.825L82.3379 17.959H82.3799C82.4499 17.581 82.5339 17.203 82.6319 16.825L84.6059 9.811H86.9789L88.9529 16.825L89.1839 17.959H89.2259C89.2679 17.581 89.3449 17.203 89.4569 16.825L91.3259 9.79H94.0979L90.8429 20.5H87.8819L86.0759 14.389L85.8029 13.234H85.7609C85.6909 13.626 85.6069 14.011 85.5089 14.389L83.6819 20.5H80.6999ZM96.7505 19.177C95.6165 18.113 95.0495 16.769 95.0495 15.145C95.0495 13.521 95.6165 12.184 96.7505 11.134C97.8845 10.07 99.2705 9.538 100.908 9.538C102.56 9.538 103.953 10.07 105.087 11.134C106.235 12.184 106.809 13.521 106.809 15.145C106.809 16.769 106.242 18.113 105.108 19.177C103.974 20.227 102.581 20.752 100.929 20.752C99.2775 20.752 97.8845 20.227 96.7505 19.177ZM97.7585 15.145C97.7585 16.125 98.0595 16.93 98.6615 17.56C99.2775 18.176 100.033 18.484 100.929 18.484C101.825 18.484 102.581 18.176 103.197 17.56C103.813 16.93 104.121 16.125 104.121 15.145C104.121 14.179 103.806 13.381 103.176 12.751C102.56 12.121 101.811 11.806 100.929 11.806C100.047 11.806 99.2985 12.121 98.6825 12.751C98.0665 13.381 97.7585 14.179 97.7585 15.145ZM109.01 20.5V9.79H111.572V11.68L111.53 12.415H111.572C111.824 11.631 112.258 10.973 112.874 10.441C113.49 9.909 114.19 9.643 114.974 9.643C115.086 9.643 115.254 9.657 115.478 9.685V12.31C115.338 12.282 115.121 12.268 114.827 12.268C113.791 12.268 113.007 12.646 112.475 13.402C111.943 14.158 111.677 15.082 111.677 16.174V20.5H109.01ZM117.336 20.5V5.59H120.003V13.57H121.326L123.909 9.79H126.87L123.489 14.578V14.62L127.29 20.5H124.224L121.389 15.817H120.003V20.5H117.336Z" fill="#080808"/>
<defs>
<clipPath id="clip0_100_6214">
<rect width="25" height="25" fill="white" transform="translate(0 0.5)"/>
</clipPath>
</defs>
</svg>
