<svg width="15" height="16" viewBox="0 0 15 16" fill="none" xmlns="http://www.w3.org/2000/svg">
<path fill-rule="evenodd" clip-rule="evenodd" d="M0 2.42231C0 2.051 0.287817 1.75 0.642857 1.75H14.3571C14.7122 1.75 15 2.051 15 2.42231C15 2.79362 14.7122 3.09462 14.3571 3.09462H0.642857C0.287817 3.09462 0 2.79362 0 2.42231ZM0 8C0 7.62869 0.287817 7.32769 0.642857 7.32769H14.3571C14.7122 7.32769 15 7.62869 15 8C15 8.37131 14.7122 8.67231 14.3571 8.67231H0.642857C0.287817 8.67231 0 8.37131 0 8ZM0 13.5777C0 13.2064 0.287817 12.9054 0.642857 12.9054H14.3571C14.7122 12.9054 15 13.2064 15 13.5777C15 13.949 14.7122 14.25 14.3571 14.25H0.642857C0.287817 14.25 0 13.949 0 13.5777Z" fill="#858585"/>
</svg>
