<svg width="15" height="16" viewBox="0 0 15 16" fill="none" xmlns="http://www.w3.org/2000/svg">
<g clip-path="url(#clip0_100_6218)">
<path d="M8.74792 8L14.7415 2.00638C14.907 1.84089 15 1.61644 15 1.38241C15 1.14838 14.907 0.923937 14.7415 0.758452C14.5761 0.592968 14.3516 0.5 14.1176 0.5C13.8836 0.5 13.6591 0.592968 13.4936 0.758452L7.5 6.75208L1.50637 0.758452C1.34088 0.592968 1.11644 0.5 0.882414 0.5C0.648383 0.5 0.423937 0.592968 0.258452 0.758452C0.0929677 0.923937 0 1.14838 0 1.38241C0 1.61644 0.0929677 1.84089 0.258452 2.00638L6.25207 8L0.258452 13.9936C0.176513 14.0756 0.11151 14.1728 0.067165 14.2799C0.0228195 14.387 3.66299e-09 14.5017 0 14.6176C-3.663e-09 14.7335 0.0228195 14.8482 0.067165 14.9553C0.11151 15.0623 0.176513 15.1596 0.258452 15.2415C0.340392 15.3235 0.437668 15.3885 0.544728 15.4328C0.651787 15.4772 0.766534 15.5 0.882414 15.5C0.998294 15.5 1.11303 15.4772 1.22009 15.4328C1.32715 15.3885 1.42443 15.3235 1.50637 15.2415L7.5 9.24793L13.4936 15.2415C13.5756 15.3235 13.6728 15.3885 13.7799 15.4328C13.887 15.4772 14.0017 15.5 14.1176 15.5C14.2335 15.5 14.3482 15.4772 14.4553 15.4328C14.5623 15.3885 14.6596 15.3235 14.7415 15.2415C14.8235 15.1596 14.8885 15.0623 14.9328 14.9553C14.9772 14.8482 15 14.7335 15 14.6176C15 14.5017 14.9772 14.387 14.9328 14.2799C14.8885 14.1728 14.8235 14.0756 14.7415 13.9936L8.74792 8Z" fill="#858585"/>
</g>
<defs>
<clipPath id="clip0_100_6218">
<rect width="15" height="15" fill="white" transform="translate(0 0.5)"/>
</clipPath>
</defs>
</svg>
