<svg width="16" height="17" viewBox="0 0 16 17" fill="none" xmlns="http://www.w3.org/2000/svg">
<g clip-path="url(#clip0_257_210)">
<path d="M15.7902 15.2324L10.7867 10.2302C11.7291 9.01992 12.1745 7.496 12.0323 5.96884C11.8901 4.44169 11.1709 3.02617 10.0212 2.01061C8.87156 0.995057 7.37792 0.455856 5.84449 0.50283C4.31107 0.549805 2.85321 1.17942 1.7679 2.26344C0.682586 3.34746 0.0514399 4.80434 0.00300798 6.33734C-0.0454239 7.87034 0.492514 9.36413 1.50724 10.5145C2.52196 11.6648 3.93714 12.3851 5.46454 12.5288C6.99194 12.6724 8.51666 12.2285 9.72814 11.2875L14.7316 16.2897C14.8727 16.4261 15.0617 16.5016 15.2579 16.5C15.4541 16.4984 15.6418 16.4198 15.7806 16.2811C15.9194 16.1425 15.9982 15.9549 16 15.7588C16.0018 15.5626 15.9265 15.3736 15.7902 15.2324ZM6.05059 11.0591C5.15931 11.0589 4.28811 10.7945 3.54713 10.2993C2.80615 9.8041 2.22869 9.10036 1.88774 8.27707C1.5468 7.45378 1.45768 6.5479 1.63168 5.67398C1.80568 4.80007 2.23499 3.99736 2.86529 3.36735C3.49559 2.73734 4.29858 2.30834 5.17276 2.13457C6.04693 1.96081 6.95303 2.05009 7.77645 2.39113C8.59987 2.73217 9.30366 3.30965 9.79881 4.05055C10.294 4.79146 10.5582 5.66251 10.5582 6.55358C10.5569 7.74828 10.0816 8.89366 9.23647 9.73835C8.39138 10.583 7.24559 11.058 6.05059 11.0591Z" fill="#C2C2C2"/>
</g>
<defs>
<clipPath id="clip0_257_210">
<rect width="16" height="16" fill="white" transform="translate(0 0.5)"/>
</clipPath>
</defs>
</svg>
