<svg width="19" height="20" viewBox="0 0 19 20" fill="none" xmlns="http://www.w3.org/2000/svg">
<path d="M8.84375 17.8125V16.25C8.84375 15.8185 9.19353 15.4688 9.625 15.4688C10.0565 15.4688 10.4062 15.8185 10.4062 16.25V17.8125C10.4062 18.244 10.0565 18.5938 9.625 18.5938C9.19353 18.5938 8.84375 18.244 8.84375 17.8125ZM4.65039 13.8691C4.95549 13.564 5.45076 13.564 5.75586 13.8691C6.06096 14.1742 6.06096 14.6695 5.75586 14.9746L4.6543 16.0762C4.3492 16.3813 3.85393 16.3813 3.54883 16.0762C3.24373 15.7711 3.24373 15.2758 3.54883 14.9707L4.65039 13.8691ZM13.4941 13.8691C13.7801 13.5832 14.2332 13.5653 14.54 13.8154L14.5996 13.8691L15.7012 14.9707L15.7549 15.0303C16.005 15.3371 15.9872 15.7902 15.7012 16.0762C15.4152 16.3622 14.9621 16.38 14.6553 16.1299L14.5957 16.0762L13.4941 14.9746L13.4404 14.915C13.1903 14.6082 13.2082 14.1551 13.4941 13.8691ZM11.9688 10C11.9688 8.70558 10.9194 7.65625 9.625 7.65625C8.33058 7.65625 7.28125 8.70558 7.28125 10C7.28125 11.2944 8.33058 12.3438 9.625 12.3438C10.9194 12.3438 11.9688 11.2944 11.9688 10ZM3.375 9.21875C3.80647 9.21875 4.15625 9.56853 4.15625 10C4.15625 10.4315 3.80647 10.7812 3.375 10.7812H1.8125C1.38103 10.7812 1.03125 10.4315 1.03125 10C1.03125 9.56853 1.38103 9.21875 1.8125 9.21875H3.375ZM17.4375 9.21875C17.869 9.21875 18.2188 9.56853 18.2188 10C18.2188 10.4315 17.869 10.7812 17.4375 10.7812H15.875C15.4435 10.7812 15.0938 10.4315 15.0938 10C15.0938 9.56853 15.4435 9.21875 15.875 9.21875H17.4375ZM3.54883 3.92383C3.83481 3.63785 4.28787 3.61997 4.59473 3.87012L4.6543 3.92383L5.75586 5.02539L5.80957 5.08496C6.05972 5.39181 6.04184 5.84488 5.75586 6.13086C5.46988 6.41684 5.01681 6.43472 4.70996 6.18457L4.65039 6.13086L3.54883 5.0293L3.49512 4.96973C3.24497 4.66287 3.26285 4.20981 3.54883 3.92383ZM14.5957 3.92383C14.9008 3.61873 15.3961 3.61873 15.7012 3.92383C16.0063 4.22893 16.0063 4.7242 15.7012 5.0293L14.5996 6.13086C14.2945 6.43596 13.7992 6.43596 13.4941 6.13086C13.189 5.82576 13.189 5.33049 13.4941 5.02539L14.5957 3.92383ZM8.84375 3.75V2.1875C8.84375 1.75603 9.19353 1.40625 9.625 1.40625C10.0565 1.40625 10.4062 1.75603 10.4062 2.1875V3.75C10.4062 4.18147 10.0565 4.53125 9.625 4.53125C9.19353 4.53125 8.84375 4.18147 8.84375 3.75ZM13.5312 10C13.5312 12.1574 11.7824 13.9062 9.625 13.9062C7.46764 13.9062 5.71875 12.1574 5.71875 10C5.71875 7.84264 7.46764 6.09375 9.625 6.09375C11.7824 6.09375 13.5312 7.84264 13.5312 10Z" fill="#858585"/>
</svg>
