<svg width="15" height="15" viewBox="0 0 15 15" fill="none" xmlns="http://www.w3.org/2000/svg">
<g clip-path="url(#clip0_105_7638)">
<path d="M7.5 14.9992C6.01664 14.9992 4.5666 14.5594 3.33323 13.7353C2.09986 12.9112 1.13856 11.74 0.570907 10.3696C0.00324961 8.99921 -0.145275 7.49129 0.144114 6.03651C0.433503 4.58173 1.14781 3.24543 2.1967 2.19659C3.2456 1.14775 4.58197 0.43348 6.03683 0.144106C7.49168 -0.145268 8.99968 0.00324944 10.3701 0.570877C11.7406 1.1385 12.9119 2.09975 13.736 3.33305C14.5601 4.56636 15 6.01633 15 7.49961C14.9977 9.48792 14.2068 11.3941 12.8008 12.8001C11.3947 14.206 9.48842 14.9969 7.5 14.9992ZM7.5 1.01048C6.21651 1.01048 4.96183 1.39106 3.89464 2.10409C2.82746 2.81713 1.99568 3.83059 1.50451 5.01633C1.01334 6.20206 0.884825 7.50681 1.13522 8.76558C1.38562 10.0243 2.00368 11.1806 2.91125 12.0881C3.81882 12.9956 4.97513 13.6137 6.23397 13.8641C7.4928 14.1144 8.79762 13.9859 9.98342 13.4948C11.1692 13.0036 12.1827 12.1719 12.8958 11.1048C13.6089 10.0376 13.9895 8.78304 13.9895 7.49961C13.9874 5.7793 13.303 4.13006 12.0864 2.91369C10.8698 1.69732 9.2204 1.01315 7.5 1.01127" fill="#A2A2A2"/>
<path d="M10.4137 9.81944C10.3353 9.81934 10.258 9.80096 10.1879 9.76576L7.07977 8.21058C6.9958 8.16874 6.92517 8.10432 6.8758 8.02455C6.82643 7.94478 6.80028 7.85283 6.80029 7.75902V3.09664C6.80029 2.96275 6.85348 2.83434 6.94816 2.73966C7.04285 2.64499 7.17126 2.5918 7.30516 2.5918C7.43906 2.5918 7.56748 2.64499 7.66216 2.73966C7.75684 2.83434 7.81003 2.96275 7.81003 3.09664V7.44799L10.6395 8.86265C10.7411 8.91364 10.8225 8.9974 10.8707 9.1004C10.9188 9.2034 10.9307 9.3196 10.9046 9.43024C10.8785 9.54088 10.8159 9.63948 10.7268 9.7101C10.6377 9.78073 10.5274 9.81925 10.4137 9.81944Z" fill="#A2A2A2"/>
</g>
<defs>
<clipPath id="clip0_105_7638">
<rect width="15" height="15" fill="white"/>
</clipPath>
</defs>
</svg>
