<svg width="20" height="20" viewBox="0 0 20 20" fill="none" xmlns="http://www.w3.org/2000/svg">
<path d="M10 20C15.5228 20 20 15.5228 20 10C20 4.47715 15.5228 0 10 0C4.47715 0 0 4.47715 0 10C0 15.5228 4.47715 20 10 20Z" fill="#FFC72E"/>
<path d="M10 12.1428C9.754 12.1428 9.51803 12.0452 9.34393 11.8714C9.16983 11.6975 9.07183 11.4617 9.07145 11.2157V4.21568C9.07145 4.09374 9.09547 3.97299 9.14214 3.86033C9.1888 3.74767 9.2572 3.64531 9.34342 3.55908C9.42965 3.47286 9.53202 3.40446 9.64467 3.35779C9.75733 3.31113 9.87808 3.28711 10 3.28711C10.122 3.28711 10.2427 3.31113 10.3554 3.35779C10.468 3.40446 10.5704 3.47286 10.6566 3.55908C10.7428 3.64531 10.8112 3.74767 10.8579 3.86033C10.9046 3.97299 10.9286 4.09374 10.9286 4.21568V11.2157C10.9282 11.4617 10.8302 11.6975 10.6561 11.8714C10.482 12.0452 10.246 12.1428 10 12.1428Z" fill="white"/>
<path d="M9.99966 16.0262C9.85725 16.0253 9.71643 15.9962 9.58537 15.9405C9.4571 15.8877 9.34056 15.81 9.24248 15.7119C9.1444 15.6139 9.06673 15.4973 9.01395 15.3691C8.95823 15.238 8.9291 15.0972 8.92823 14.9548C8.92766 14.8122 8.95686 14.6711 9.01395 14.5405C9.06804 14.4129 9.14557 14.2966 9.24252 14.1976C9.3934 14.0481 9.58516 13.9467 9.79362 13.906C10.0021 13.8653 10.2179 13.8872 10.4139 13.9691C10.5422 14.0218 10.6588 14.0995 10.7568 14.1976C10.8549 14.2957 10.9326 14.4122 10.9854 14.5405C11.0425 14.6711 11.0717 14.8122 11.0711 14.9548C11.0702 15.0972 11.0411 15.238 10.9854 15.3691C10.9326 15.4973 10.8549 15.6139 10.7568 15.7119C10.6588 15.81 10.5422 15.8877 10.4139 15.9405C10.2833 15.9976 10.1422 16.0268 9.99966 16.0262Z" fill="white"/>
</svg>
